<?xml version="1.0" encoding="utf-8"?>
<!-- Svg Vector Icons : http://www.onlinewebfonts.com/icon -->
<!DOCTYPE svg PUBLIC "-//W3C//DTD SVG 1.1//EN" "http://www.w3.org/Graphics/SVG/1.1/DTD/svg11.dtd">
<svg version="1.1" xmlns="http://www.w3.org/2000/svg" xmlns:xlink="http://www.w3.org/1999/xlink" x="0px" y="0px" viewBox="0 0 1000 1000" enable-background="new 0 0 1000 1000" xml:space="preserve">
<metadata> Svg Vector Icons : http://www.onlinewebfonts.com/icon </metadata>
<g><g transform="translate(0.000000,511.000000) scale(0.100000,-0.100000)"><path d="M4435,3184.6c-1154.6-106.8-2151.1-544.5-2814.7-1234.8C1114.9,1423.9,825.2,799.3,745.1,57.6l-24.6-234.2L589-234.1c-187-80.1-318.4-207.5-410.9-396.5C104.1-778.5,100-797.1,100-984c0-176.7,6.2-207.5,63.7-330.8c80.1-168.5,191.1-291.7,330.8-371.9l108.9-61.6v-145.9c2.1-462.3,223.9-862.9,569.1-1027.3l139.7-65.7h3708.4h3708.4l92.5,49.3c141.8,73.9,275.3,228,347.2,400.6c69.8,166.4,125.3,447.9,125.3,630.7v119.2l137.7,65.8c176.7,84.2,318.4,226,402.7,404.7c59.6,125.3,65.8,156.1,65.8,332.8c0,176.7-6.2,207.5-65.8,334.9c-86.3,182.9-244.5,337-423.2,415l-133.5,59.6L9263.1-41c-113,1103.3-702.6,2003.1-1692.9,2584.6C6721.7,3044.9,5536.2,3285.3,4435,3184.6z M5694.4,2829.2c1592.2-236.3,2724.3-1058.1,3102.3-2251.7c63.7-199.3,127.4-528,127.4-651.3v-67.8H5000H1075.9v88.3c0,131.5,53.4,435.5,113,641c152,526,482.8,1025.2,908.1,1370.4c573.2,466.4,1362.1,780.7,2204.5,877.3c106.8,12.3,228.1,26.7,267.1,30.8C4720.6,2884.6,5493.1,2857.9,5694.4,2829.2z M9328.8-552.5c215.7-123.3,302-361.6,219.8-602c-41.1-121.2-195.2-265-320.5-300c-67.8-18.5-1111.5-22.6-4281.6-18.5l-4193.3,6.2l-100.7,61.6c-61.6,39-123.3,100.7-162.3,162.3c-55.5,90.4-61.6,119.2-61.6,256.8c0,178.8,45.2,287.6,158.2,382.1c139.7,119.2-152,110.9,4413.1,113h4222L9328.8-552.5z M8936.4-1964c-32.9-367.8-92.5-544.4-217.8-651.3l-65.8-53.4H5047.2c-2771.5,0-3626.2,6.2-3691.9,24.7c-121.2,37-281.5,203.4-336.9,349.3c-24.7,65.7-49.3,197.2-57.5,302l-14.4,187h4002.2h4000.1L8936.4-1964z"/><path d="M1476.5-640.9c-184.9-61.6-363.7-201.4-484.9-378c-108.9-158.2-61.6-314.3,96.6-314.3c57.5,0,86.3,14.4,129.4,63.7c170.5,199.3,219.8,246.5,297.9,285.6c96.6,45.2,226,53.4,293.8,14.4c26.7-14.4,90.4-80.1,143.8-147.9c125.3-154.1,238.3-215.7,400.6-215.7c184.9,0,289.7,63.7,415,258.9c65.7,100.7,125.3,131.5,254.8,131.5c141.8-2.1,203.4-37,300-174.6c108.9-158.2,207.5-215.7,367.8-215.7c184.9,0,322.6,90.4,417.1,271.2c39,74,139.7,119.2,265,119.2c143.8,0,217.8-43.2,320.5-180.8c205.4-283.5,427.3-283.5,665.7,2.1c113,135.6,213.7,184.9,351.3,174.6c110.9-10.3,115.1-12.3,281.5-187c150-156.2,178.8-176.7,271.2-197.2c187-37,349.3,22.6,476.7,174.6c164.4,199.3,182.8,213.7,271.2,213.7c117.1,0,166.4-28.8,256.8-154.1c119.2-166.4,213.7-224,382.1-232.2c178.7-10.3,269.1,34.9,400.6,205.4c106.8,137.6,186.9,180.8,334.9,180.8c131.5,0,240.4-80.1,337-250.7c61.6-108.9,100.7-139.7,182.8-139.7c59.6,0,86.3,12.3,119.2,53.4c63.7,80.1,53.4,152-41.1,293.8c-174.6,263-388.3,382.1-649.2,367.8c-203.4-14.4-343.1-84.2-495.1-254.8c-154.1-172.6-195.2-174.6-314.3-18.5c-150,199.3-339,291.7-554.7,271.2c-162.3-14.4-234.2-55.5-400.6-234.2c-106.8-113-160.3-154.1-197.2-154.1c-37,0-96.6,45.2-213.7,164.4C6017-700.5,5980-675.8,5875.2-645c-260.9,76-491,4.1-731.4-228.1l-135.6-131.5l-74,100.7c-180.8,240.4-501.3,345.2-793,258.9c-125.3-37-205.4-100.7-314.3-250.7c-108.9-145.9-154.1-145.9-265,2c-147.9,195.2-300,269.2-554.7,269.2c-234.2,0-336.9-51.4-491-242.4c-145.9-182.9-182.9-184.9-336.9-8.2c-152,174.6-285.6,244.5-474.6,254.8C1620.3-618.3,1523.8-626.5,1476.5-640.9z"/></g></g>
</svg>